<svg width="22" height="23" viewBox="0 0 22 23" fill="none" xmlns="http://www.w3.org/2000/svg">
<g clip-path="url(#clip0)">
<path d="M14.4656 9.15511C15.9243 7.82527 17.8968 6.02673 18.0766 1.72998H19.3789V0.440918H2.62109V1.72998H3.92343C4.10321 6.02673 6.07574 7.82527 7.53436 9.15511C8.5128 10.0472 9.06641 10.5932 9.06641 11.4409C9.06641 12.2886 8.5128 12.8347 7.53436 13.7267C6.07574 15.0566 4.10321 16.8551 3.92343 21.1519H2.62109V22.4409H19.3789V21.1519H18.0766C17.8968 16.8551 15.9243 15.0566 14.4656 13.7267C13.4872 12.8347 12.9336 12.2886 12.9336 11.4409C12.9336 10.5932 13.4872 10.0472 14.4656 9.15511ZM10.3555 16.2722C10.1564 16.3133 9.95973 16.3731 9.76779 16.4525L5.81995 18.0861C6.46465 16.4469 7.50303 15.4997 8.40284 14.6793C9.40702 13.7638 10.3555 12.8991 10.3555 11.4409V16.2722ZM13.5972 14.6793C14.497 15.4997 15.5353 16.4469 16.1801 18.0861L12.2322 16.4524C12.0403 16.373 11.8436 16.3133 11.6445 16.2722V11.4409C11.6445 12.8991 12.593 13.7638 13.5972 14.6793ZM5.7973 4.73779C5.48565 3.92573 5.27042 2.94522 5.21409 1.72998H16.7859C16.7295 2.94522 16.5144 3.92573 16.2027 4.73779H5.7973Z" fill="white"/>
</g>
<defs>
<clipPath id="clip0">
<rect width="22" height="22" fill="white" transform="translate(0 0.440918)"/>
</clipPath>
</defs>
</svg>
