<svg width="23" height="24" fill="none" xmlns="http://www.w3.org/2000/svg"><g clip-path="url(#clip0)" fill="#fff"><path d="M14.116 8.387a.675.675 0 00-.188-.366L10.75 4.845a.674.674 0 00-.953 0l-1.11 1.111-.795-.794a.674.674 0 00-.952 0l-2.86 2.86a.674.674 0 00-.1.822l.682 1.137L.904 13.74a.674.674 0 000 .953l.794.794-.711.711A3.347 3.347 0 000 18.58v4.187a.674.674 0 101.348 0V18.58c0-.54.21-1.048.592-1.43l.711-.711 1.747 1.747a3.373 3.373 0 004.765 0l5.4-5.4a.674.674 0 00.188-.588l-.635-3.811zM8.21 17.233a2.024 2.024 0 01-2.859 0l-.476-.477 2.502-2.502v.914a.674.674 0 001.348 0v-1.45l2 1-2.515 2.515zm13.8-8.248a24.519 24.519 0 00-.926-1.47.674.674 0 00-1.11 0c-.018.027-.469.681-.926 1.47-.887 1.528-.99 2.163-.99 2.507a2.474 2.474 0 002.471 2.47A2.474 2.474 0 0023 11.492c0-.344-.103-.979-.99-2.507zM20.212 3.81a.67.67 0 00.674-.674V1.115a.675.675 0 00-.674-.674h-1.146c-2.01 0-3.9.783-5.32 2.204L12.1 4.289l2.383 2.382 1.644-1.644a4.128 4.128 0 012.938-1.217h1.146z"/></g><defs><clipPath id="clip0"><path fill="#fff" transform="translate(0 .44)" d="M0 0h23v23H0z"/></clipPath></defs></svg>