<svg width="22" height="23" fill="none" xmlns="http://www.w3.org/2000/svg"><g clip-path="url(#clip0)"><path d="M14.466 9.155c1.458-1.33 3.43-3.128 3.61-7.425h1.303V.44H2.62v1.29h1.302c.18 4.297 2.153 6.095 3.611 7.425.979.892 1.532 1.438 1.532 2.286 0 .848-.553 1.394-1.532 2.286-1.458 1.33-3.43 3.128-3.61 7.425H2.62v1.289h16.76v-1.29h-1.302c-.18-4.296-2.153-6.094-3.611-7.424-.979-.892-1.532-1.438-1.532-2.286 0-.848.553-1.394 1.532-2.286zm-4.11 7.117c-.2.041-.396.101-.588.18L5.82 18.087c.645-1.64 1.683-2.586 2.583-3.407 1.004-.915 1.952-1.78 1.952-3.238v4.831zm3.241-1.593c.9.82 1.938 1.768 2.583 3.407l-3.948-1.634a3.26 3.26 0 00-.587-.18v-4.831c0 1.458.948 2.323 1.952 3.238zm-7.8-9.941c-.311-.812-.527-1.793-.583-3.008h11.572c-.056 1.215-.272 2.196-.583 3.008H5.797z" fill="#fff"/></g><defs><clipPath id="clip0"><path fill="#fff" transform="translate(0 .44)" d="M0 0h22v22H0z"/></clipPath></defs></svg>