<svg width="26" height="24" fill="none" xmlns="http://www.w3.org/2000/svg"><path d="M18.25 9.958v2.938l2.795-.912a5.028 5.028 0 00-2.795-2.026zm-.912 3.062V9.785a5.038 5.038 0 00-.456-.023c-.154 0-.306.01-.456.023v3.233c.298-.086.614-.086.912 0zm.456 1.758a.912.912 0 11-1.824 0 .912.912 0 011.824 0zM11.011 4.526a2.748 2.748 0 011.617 1.687 9.491 9.491 0 013.436-.968 8.98 8.98 0 00-3.31-1.276 9.398 9.398 0 01-4.028-1.67 4.97 4.97 0 002.285 2.227zm4.337 9.274l-3.074-1c-.12.28-.213.57-.28.867l3.075.999c.018-.308.113-.606.278-.866zm3.346.866l3.075-1a5.027 5.027 0 00-.28-.866l-3.073 1c.165.26.26.558.278.866zM9.541 8.642a6.529 6.529 0 01-.993-2.002c-.075-.209-.147-.41-.221-.593a3.076 3.076 0 00-.534-.937c-.421-.447-1.16-.532-1.872-.613l-.294-.035A8.43 8.43 0 01.738 1.854 3.808 3.808 0 01.008.441C-.108 2.436.993 4.686 3.006 5.22c1.764.467 5.433 1.439 4.797 3.862-.336 1.28-.538 2.052-1.158 2.064-.564.03-.888-.679-1.283-1.96-.427-1.391-2.027-1.58-3.191-1.519a6.548 6.548 0 011.763 1.491 3.91 3.91 0 01.639 2.375 5.2 5.2 0 00.163 1.322c.264.843 1.039 1.352 1.86 1.891.247.162.496.33.738.507-.01-.156-.026-.314-.026-.475a9.528 9.528 0 012.234-6.136zm5.973 1.316a5.03 5.03 0 00-2.796 2.028l2.796.912v-2.94z" fill="#fff"/><path d="M16.882 6.115a8.663 8.663 0 108.662 8.663 8.672 8.672 0 00-8.662-8.663zm-.456.912a.456.456 0 110 .912.456.456 0 010-.912zm-5.927 5.016a.456.456 0 01-.395-.682c1.904-3.334 4.308-3.849 4.41-3.869a.456.456 0 01.181.894c-.033.007-2.12.489-3.799 3.427a.456.456 0 01-.397.23zm9.088 8.003l-.003.003a.446.446 0 01-.144.067 5.855 5.855 0 01-5.194-.037.443.443 0 01-.066-.03l-.003-.003a5.852 5.852 0 01-3.14-6.21v-.003a5.931 5.931 0 014.93-4.904h.003a5.398 5.398 0 011.824 0h.003a5.931 5.931 0 014.93 4.904v.002a5.853 5.853 0 01-3.14 6.21z" fill="#fff"/><path d="M17.551 16.47l1.895 2.61a5.07 5.07 0 00.737-.535l-1.9-2.614a1.823 1.823 0 01-.732.54zm-5.675-1.883c-.002.064-.01.127-.01.191 0 1.123.38 2.213 1.077 3.094l1.727-2.377-2.794-.908zm7.217.908l1.728 2.377a4.987 4.987 0 001.076-3.094c0-.064-.007-.127-.01-.19l-2.794.907zm-3.938 3.985a4.925 4.925 0 003.454 0l-1.727-2.377-1.727 2.378zm.325-3.55l-1.9 2.614c.23.2.476.38.738.537l1.894-2.61a1.823 1.823 0 01-.731-.54z" fill="#fff"/></svg>