<svg width="23" height="24" fill="none" xmlns="http://www.w3.org/2000/svg"><path d="M9.092 15.405c-.06.038-.122.071-.187.1-.018.01-.035.021-.053.03a1.57 1.57 0 01-.173.053c.076.576.01 1.16-.194 1.704a3.267 3.267 0 001.578-.557 2.617 2.617 0 00-.97-1.33zm.508-2.262c.037.06.07.122.1.186.009.019.02.035.029.054.021.057.039.115.054.173a3.532 3.532 0 011.704.194 3.267 3.267 0 00-.558-1.578 2.618 2.618 0 00-1.33.97zm.216 1.237c-.005.021-.014.04-.02.063a1.65 1.65 0 01-.066.214c-.008.02-.02.036-.029.054-.014.03-.032.06-.048.09.46.353.828.813 1.068 1.342a3.27 3.27 0 00.723-1.511 2.615 2.615 0 00-1.628-.252zm-2.479-1.745c.057-.035.116-.067.177-.094.022-.011.041-.026.064-.035.056-.021.114-.04.173-.054a3.53 3.53 0 01.193-1.704 3.267 3.267 0 00-1.578.558c.173.536.513 1.002.971 1.329zm1.301-.195c.072.017.144.039.214.066.018.008.035.02.053.029.031.014.06.031.09.048a3.54 3.54 0 011.342-1.068 3.27 3.27 0 00-1.51-.723 2.612 2.612 0 00-.253 1.626c.022.007.042.016.064.021zm-.774.84a.825.825 0 00-.39.39c-.004.011-.012.021-.016.032a.823.823 0 00-.03.092c-.005.021-.014.041-.018.064-.005.023-.003.035-.006.053a.576.576 0 000 .22c.003.017 0 .035.006.052l.02.065c.007.03.016.061.028.091.004.011.012.021.017.032a.818.818 0 00.182.249.84.84 0 001.115 0 .819.819 0 00.182-.249c.006-.01.013-.02.017-.032A.74.74 0 009 14.248c.006-.022.015-.041.02-.065.004-.023.002-.035.005-.052a.576.576 0 000-.22c-.003-.018 0-.036-.005-.053a.834.834 0 01-.02-.064.823.823 0 00-.029-.092l-.016-.032a.822.822 0 00-.39-.39c-.011-.004-.021-.012-.032-.017a.94.94 0 00-.092-.028c-.021-.006-.04-.015-.064-.02-.023-.004-.035-.002-.052-.005a.576.576 0 00-.22 0c-.018.003-.036 0-.053.006a3.227 3.227 0 01-.065.02.852.852 0 00-.09.027l-.033.018zm-.072 2.321a1.668 1.668 0 01-.215-.066c-.018-.009-.035-.02-.053-.03a1.101 1.101 0 01-.09-.047 3.55 3.55 0 01-1.342 1.068 3.27 3.27 0 001.51.723 2.608 2.608 0 00.253-1.626c-.022-.007-.042-.016-.063-.022zM9.494 4.378l.147.47 2.94-.24-.346-1.095-2.741.865zm3.029-2.679l-4.308 1.36.247.784.39-.123.003-.002 3.524-1.113h.003l.389-.123-.248-.783zM6.83 14.898a1.633 1.633 0 01-.101-.187c-.009-.018-.02-.035-.029-.054a1.762 1.762 0 01-.054-.171 4.272 4.272 0 01-.474.029 3.336 3.336 0 01-1.23-.223 3.26 3.26 0 00.558 1.576 2.618 2.618 0 001.33-.97zM19.715 4.163v5.75a.82.82 0 00.82.822h.822V3.342h-.821a.821.821 0 00-.822.821zM17.66 6.217h1.233v.821h-1.232v-.821zm0 1.643h1.233v.821h-1.232V7.86zm-11.047 5.8c.005-.02.014-.04.02-.063a1.66 1.66 0 01.066-.214c.008-.019.02-.035.029-.054.014-.03.032-.06.048-.09a3.534 3.534 0 01-1.068-1.341 3.27 3.27 0 00-.723 1.51 2.616 2.616 0 001.628.253zM17.66 9.913c0 .227.185.41.412.41h.41a.41.41 0 00.411-.41v-.41h-1.232v.41zm4.519-6.571v7.393A.821.821 0 0023 9.913v-5.75a.821.821 0 00-.821-.821zm-3.697 1.232h-.41a.41.41 0 00-.411.41v.411h1.232v-.41a.41.41 0 00-.41-.411z" fill="#fff"/><path d="M7.797 5.818h-.026c-.15.008-.314.019-.477.041a.36.36 0 01-.057.005 8.214 8.214 0 108.506 4.87h-1.368a.41.41 0 010-.82h2.465V5.086l-9.01.73-.033.001zm6.168 8.202a5.75 5.75 0 11-5.75-5.75 5.756 5.756 0 015.75 5.75z" fill="#fff"/><path d="M8.215 18.949a4.928 4.928 0 100-9.857 4.928 4.928 0 000 9.857zM5.687 10.79a4.089 4.089 0 015.756.702l.003.004a4.09 4.09 0 01-.705 5.756 4.102 4.102 0 11-5.054-6.462z" fill="#fff"/></svg>