<svg xmlns="http://www.w3.org/2000/svg"><symbol id="youtube" viewBox="0 0 26 18"><path d="M24.895 1.735C24.19.47 23.425.239 21.866.15 20.309.044 16.395 0 13.003 0 9.605 0 5.69.044 4.134.149 2.579.239 1.812.469 1.1 1.735.374 2.996 0 5.169 0 8.995v.013c0 3.81.374 6 1.1 7.248.712 1.263 1.477 1.492 3.032 1.598 1.557.092 5.473.146 8.871.146 3.392 0 7.306-.054 8.865-.144 1.558-.106 2.323-.336 3.029-1.599C25.63 15.01 26 12.82 26 9.01v-.013c0-3.828-.37-6-1.105-7.262zM9.75 13.909V4.091L17.875 9 9.75 13.91z"/></symbol><symbol id="instagram" viewBox="0 0 21 20"><path d="M.126 6.087c.067-.475.118-.952.204-1.423C.814 1.994 2.703.179 5.405.086c3.253-.112 6.515-.118 9.767 0 2.94.105 5.07 2.283 5.162 5.224.097 3.123.097 6.254 0 9.377-.092 2.941-2.22 5.118-5.162 5.224-3.252.117-6.515.12-9.767-.002-2.94-.11-4.973-2.292-5.17-5.238-.017-.255-.072-.507-.109-.76V6.086zm10.143 12.08c1.489 0 2.978.045 4.465-.01 2.33-.086 3.764-1.477 3.818-3.805.067-2.901.067-5.806 0-8.707-.054-2.328-1.489-3.752-3.818-3.801a210.747 210.747 0 00-8.874 0c-2.311.048-3.75 1.443-3.812 3.745-.08 2.938-.08 5.88 0 8.819.063 2.302 1.5 3.664 3.813 3.75 1.467.054 2.939.01 4.408.01z" fill="url(#paint0_linear)"/><path d="M0 6.087c.067-.475.118-.952.204-1.423C.688 1.994 2.577.179 5.279.086c3.252-.112 6.515-.118 9.767 0 2.94.105 5.07 2.283 5.162 5.224.097 3.123.097 6.254 0 9.377-.092 2.941-2.221 5.118-5.162 5.224-3.252.117-6.515.12-9.767-.002C2.34 19.8.305 17.617.11 14.671c-.017-.255-.072-.507-.109-.76V6.086zm10.143 12.08c1.489 0 2.978.045 4.465-.01 2.33-.086 3.764-1.477 3.818-3.805.067-2.901.067-5.806 0-8.707-.054-2.328-1.489-3.752-3.818-3.801a210.746 210.746 0 00-8.874 0c-2.312.048-3.75 1.443-3.812 3.745-.08 2.938-.08 5.88 0 8.819.063 2.302 1.5 3.664 3.812 3.75 1.468.054 2.94.01 4.41.01z"/><path d="M10.14 4.832a5.168 5.168 0 100 10.336 5.168 5.168 0 000-10.336zm0 8.557a3.389 3.389 0 110-6.778 3.389 3.389 0 010 6.778zm6.7-8.793a1.23 1.23 0 11-2.46 0 1.23 1.23 0 012.46 0z"/><defs><linearGradient id="paint0_linear" x1="16.673" y1="3.638" x2="3.621" y2="16.691" gradientUnits="userSpaceOnUse"><stop stop-color="#833AB4"/><stop offset=".092" stop-color="#9C3495"/><stop offset=".293" stop-color="#DC2546"/><stop offset=".392" stop-color="#FD1D1D"/><stop offset=".559" stop-color="#FC6831"/><stop offset=".689" stop-color="#FC9B40"/><stop offset=".752" stop-color="#FCAF45"/><stop offset=".781" stop-color="#FDB750"/><stop offset=".866" stop-color="#FECB6A"/><stop offset=".942" stop-color="#FFD87A"/><stop offset="1" stop-color="#FFDC80"/></linearGradient></defs></symbol><symbol id="facebook" viewBox="0 0 11 23"><path d="M9.882 11.561H6.999v10.832H2.632V11.56H.555V7.755h2.077V5.29c0-1.761.816-4.52 4.406-4.52l3.235.014V4.48H7.926c-.385 0-.927.198-.927 1.038v2.24h3.264l-.381 3.803z"/></symbol><symbol id="telegram" viewBox="0 0 20 18"><path d="M.903 7.167L18.11.087c.798-.308 1.495.208 1.237 1.496l.001-.001-2.93 14.73c-.216 1.044-.798 1.297-1.611.805l-4.462-3.509-2.152 2.213c-.238.254-.438.468-.9.468l.317-4.845 8.269-7.972c.36-.338-.08-.529-.555-.192L5.106 10.146.701 8.678c-.956-.324-.977-1.02.202-1.512z"/></symbol><symbol id="viber" viewBox="0 0 22 23"><path d="M21.167 6.097l-.006-.025c-.518-2.092-2.85-4.337-4.993-4.804l-.024-.005a27.746 27.746 0 00-10.444 0l-.025.005C3.534 1.735 1.201 3.98.682 6.072l-.005.025a20.442 20.442 0 000 8.806l.005.026c.496 2.003 2.656 4.144 4.718 4.733v2.335c0 .846 1.03 1.26 1.616.651l2.366-2.46c.513.03 1.027.045 1.54.045 1.744 0 3.49-.165 5.222-.495l.024-.005c2.143-.467 4.476-2.712 4.993-4.804l.006-.026a20.44 20.44 0 000-8.806zm-1.872 8.383c-.345 1.364-2.117 3.061-3.524 3.375-1.843.35-3.7.5-5.555.448a.131.131 0 00-.098.04L8.39 20.117l-1.837 1.885a.215.215 0 01-.37-.148v-3.869a.133.133 0 00-.11-.13c-1.408-.314-3.178-2.01-3.525-3.376a18.55 18.55 0 010-7.958c.347-1.365 2.117-3.062 3.525-3.375a25.841 25.841 0 019.698 0c1.408.313 3.179 2.01 3.524 3.375.576 2.64.576 5.318 0 7.959z"/><path d="M13.983 16.265c-.216-.065-.423-.11-.614-.189-1.985-.823-3.81-1.885-5.257-3.514-.823-.925-1.467-1.97-2.011-3.077-.258-.524-.476-1.07-.698-1.611-.202-.494.096-1.004.41-1.376.294-.35.672-.617 1.082-.814.32-.154.636-.065.87.206.505.587.97 1.203 1.345 1.883.231.418.168.93-.251 1.214-.102.069-.195.15-.29.228a.949.949 0 00-.218.23.63.63 0 00-.042.554c.516 1.42 1.387 2.524 2.816 3.118.228.095.458.206.721.175.441-.051.584-.535.893-.788.302-.247.688-.25 1.014-.044.325.206.64.427.954.65.308.22.615.434.899.684.273.24.367.556.213.883-.281.597-.69 1.095-1.282 1.412-.167.09-.366.119-.554.176-.216-.065.188-.058 0 0zM10.926 5.001c2.596.073 4.728 1.795 5.185 4.362.077.437.105.884.14 1.328.014.186-.091.364-.293.366-.208.002-.302-.172-.315-.358-.027-.37-.045-.74-.096-1.107-.269-1.933-1.81-3.533-3.735-3.876-.29-.052-.586-.066-.88-.096-.185-.02-.428-.031-.47-.262-.034-.193.13-.347.314-.357.05-.002.1 0 .15 0 2.596.073-.05 0 0 0z"/><path d="M14.874 10.113c-.005.033-.007.109-.026.18-.069.261-.464.294-.555.03a.781.781 0 01-.031-.25c-.001-.55-.12-1.1-.398-1.577a2.936 2.936 0 00-1.23-1.155 3.542 3.542 0 00-.982-.302c-.148-.024-.297-.039-.446-.06-.18-.025-.276-.14-.268-.317a.28.28 0 01.311-.276c.596.034 1.171.163 1.7.443 1.078.57 1.693 1.47 1.872 2.673.008.054.021.108.026.163.01.135.016.27.027.448-.005.033-.01-.178 0 0z"/><path d="M13.258 10.05c-.217.003-.333-.117-.355-.316-.016-.139-.028-.28-.061-.414a1.166 1.166 0 00-.43-.676 1.123 1.123 0 00-.351-.169c-.16-.046-.325-.033-.484-.072-.172-.042-.268-.182-.24-.344a.312.312 0 01.329-.25c1.005.072 1.724.592 1.827 1.776.007.084.016.172-.003.252-.032.137-.133.206-.232.212-.217.004.1-.006 0 0z"/></symbol><symbol id="search" viewBox="0 0 18 18"><path d="M13.091 11.549a7.07 7.07 0 001.378-4.191C14.47 3.433 11.276.24 7.352.24A7.126 7.126 0 00.234 7.358c0 3.924 3.193 7.117 7.118 7.117a7.07 7.07 0 004.191-1.378l4.663 4.663 1.548-1.548-4.663-4.663zm-5.74.736a4.933 4.933 0 01-4.927-4.927A4.933 4.933 0 017.352 2.43a4.933 4.933 0 014.927 4.928 4.933 4.933 0 01-4.927 4.927z"/></symbol><symbol id="phone" viewBox="0 0 13 13"><path fill-rule="evenodd" clip-rule="evenodd" d="M12.026 9.545v1.805a1.202 1.202 0 01-1.315 1.204 11.948 11.948 0 01-5.204-1.848 11.747 11.747 0 01-3.618-3.61 11.895 11.895 0 01-1.851-5.22 1.202 1.202 0 011.2-1.312h1.809A1.205 1.205 0 014.253 1.6a7.69 7.69 0 00.422 1.69c.166.44.06.937-.271 1.27l-.766.765a9.639 9.639 0 003.618 3.61l.766-.763c.334-.33.831-.437 1.272-.271a7.755 7.755 0 001.694.421c.607.085 1.053.61 1.038 1.222z"/></symbol><symbol id="tire" viewBox="0 0 28 28"><g clip-path="url(#clip0)" fill="#fff"><path d="M28 14.026V14a13.91 13.91 0 00-4.1-9.9A13.908 13.908 0 0014 0a13.91 13.91 0 00-9.899 4.1 13.908 13.908 0 00-4.1 9.873V14a13.91 13.91 0 004.1 9.9 13.908 13.908 0 009.892 4.1h.013a13.908 13.908 0 009.894-4.1 13.908 13.908 0 004.1-9.872v-.002zM20.606 24.44l-1.203-.794a.82.82 0 00-.904 1.369l.46.304a12.274 12.274 0 01-4.457 1.028l-.646-1.293a.82.82 0 00-1.468.734l.247.494a12.264 12.264 0 01-4.374-1.34l.087-1.441a.82.82 0 00-1.638-.098l-.033.545a12.458 12.458 0 01-3.118-3.343l.795-1.204a.82.82 0 00-1.37-.904l-.303.46a12.274 12.274 0 01-1.029-4.456l1.293-.647a.82.82 0 00-.734-1.467l-.494.247a12.282 12.282 0 011.34-4.375l1.442.087a.82.82 0 00.098-1.638l-.546-.033A12.459 12.459 0 017.395 3.56l1.204.794a.82.82 0 10.904-1.37l-.46-.303a12.273 12.273 0 014.456-1.028l.647 1.293a.82.82 0 101.467-.734l-.247-.495a12.29 12.29 0 014.375 1.341l-.087 1.441a.82.82 0 101.638.098l.033-.545a12.459 12.459 0 013.117 3.344l-.794 1.203a.82.82 0 001.369.904l.304-.46a12.276 12.276 0 011.028 4.457l-1.293.646a.82.82 0 00.734 1.468l.494-.248a12.262 12.262 0 01-1.34 4.375l-1.442-.087a.82.82 0 00-.098 1.638l.546.033a12.458 12.458 0 01-3.344 3.117z"/><path d="M14 5.272c-4.813 0-8.728 3.915-8.728 8.728S9.187 22.728 14 22.728s8.728-3.915 8.728-8.728S18.813 5.272 14 5.272zm0 10.544A1.818 1.818 0 0112.184 14c0-1.001.815-1.816 1.816-1.816 1.001 0 1.816.815 1.816 1.816A1.818 1.818 0 0114 15.816zM6.913 14c0-.997.207-1.947.58-2.81l3.19 1.842a3.443 3.443 0 000 1.936l-3.19 1.841A7.048 7.048 0 016.914 14zm10.404-.968l3.19-1.841c.373.862.58 1.812.58 2.81 0 .997-.207 1.946-.58 2.808l-3.19-1.84a3.446 3.446 0 000-1.937zm2.367-3.26l-3.189 1.84a3.457 3.457 0 00-1.675-.969V6.96a7.09 7.09 0 014.864 2.811zM13.18 6.96v3.683a3.456 3.456 0 00-1.675.97L8.315 9.77a7.09 7.09 0 014.865-2.81zM8.316 18.23l3.189-1.841c.448.468 1.025.81 1.675.97v3.682a7.09 7.09 0 01-4.864-2.811zm6.504 2.81v-3.682a3.456 3.456 0 001.675-.97l3.19 1.842a7.09 7.09 0 01-4.865 2.81z"/></g><defs><clipPath id="clip0"><path fill="#fff" d="M0 0h28v28H0z"/></clipPath></defs></symbol><symbol id="arrow-triangle" viewBox="0 0 10 12"><path d="M2.178 11.166l6.56-4.38a1 1 0 000-1.663L2.179.743a1 1 0 00-1.555.831v8.76a1 1 0 001.555.832z" fill="#fff"/></symbol><symbol id="steering-wheel" viewBox="0 0 35 36"><g clip-path="url(#clip0)"><path d="M17.331 19.992c.55 0 .996-.46.996-1.026 0-.566-.446-1.025-.996-1.025s-.996.459-.996 1.025c0 .567.446 1.026.996 1.026z"/><path d="M17.331.44c-9.36 0-17 7.866-17 17.5 0 9.637 7.64 17.5 17 17.5s17-7.864 17-17.5c0-9.635-7.64-17.5-17-17.5zm0 4.17c6.463 0 11.835 4.9 12.796 11.28h-3.454c-2.19 0-4.271-.905-5.71-2.482a4.887 4.887 0 00-7.264 0c-1.438 1.577-3.52 2.482-5.71 2.482H4.535c.961-6.38 6.333-11.28 12.796-11.28zm0 17.433c-1.648 0-2.988-1.38-2.988-3.077 0-1.696 1.34-3.076 2.988-3.076s2.988 1.38 2.988 3.076c0 1.697-1.34 3.076-2.988 3.076zM5.273 22.8c1.14-.46 1.964-.758 3.093-.758 3.632 0 6.456 3.33 5.91 7.074h-.003a6.269 6.269 0 01-.472 1.65c-3.902-1.139-7.06-4.119-8.528-7.966zm15.589 7.966a6.253 6.253 0 01-.473-1.65h-.002c-.637-4.362 3.274-7.96 7.328-6.9.428.112.962.297 1.674.584-1.468 3.847-4.625 6.827-8.527 7.966z"/></g></symbol><symbol id="check" viewBox="0 0 35 35"><path d="M35 17.44l-3.962-4.273.62-5.72-5.794-1.192-2.955-4.987L17.5 3.616l-5.41-2.348-2.954 4.987-5.794 1.192.62 5.72L0 17.442l3.962 4.273-.62 5.721 5.793 1.192 2.956 4.987 5.409-2.348 5.41 2.348 2.954-4.987 5.794-1.192-.62-5.72L35 17.44zm-10.164-3.72l-8.784 9.56-6.104-5.93 1.452-1.41 4.567 4.437 7.338-7.986 1.531 1.329z"/></symbol><symbol id="checked" viewBox="0 0 32 33"><path d="M16 .44L4 5.013v11.429c0 9.143 4.8 12.571 12 16 7.2-3.429 12-6.857 12-16V5.012L16 .441zm-2 22l-6-6 3-3 3.086 3.087 6.5-6.5L23.5 12.94l-9.5 9.5z"/></symbol><symbol id="accor-arrow" viewBox="0 0 256 256" xml:space="preserve"><path d="M225.813 48.907L128 146.72 30.187 48.907 0 79.093l128 128 128-128z"/></symbol><symbol id="mark" viewBox="0 0 17 22"><path d="M14.195 2.257C12.674.802 10.65 0 8.499 0 6.347 0 4.325.802 2.803 2.257c-2.815 2.692-3.165 7.759-.757 10.828L8.499 22l6.444-8.902c2.417-3.082 2.067-8.149-.748-10.841zm-5.621 8.19c-1.621 0-2.94-1.263-2.94-2.813 0-1.55 1.319-2.813 2.94-2.813 1.62 0 2.94 1.262 2.94 2.813 0 1.55-1.32 2.812-2.94 2.812z"/></symbol><symbol id="mail" viewBox="0 0 20 15"><path d="M17.475 0H1.84c-.257 0-.497.063-.714.167L9.62 8.676l1.903-1.833L18.19.168A1.646 1.646 0 0017.475 0zm1.5.955l-6.272 6.281 6.271 6.282c.104-.218.168-.459.168-.716V1.67c0-.257-.064-.497-.167-.715zM.339.954a1.653 1.653 0 00-.167.716v11.132c0 .257.063.498.167.716L6.61 7.236.339.954z"/><path d="M11.918 8.024l-1.904 1.832a.554.554 0 01-.786 0l-1.83-1.833-6.272 6.281c.217.104.458.168.714.168h15.635c.257 0 .497-.063.715-.168l-6.272-6.28z"/></symbol><symbol id="checkbox-input" viewBox="0 0 11 11"><path fill-rule="evenodd" clip-rule="evenodd" d="M10.338 4.369l-6.15 6.15L.37 6.7l1.419-1.419L4.188 7.68l4.73-4.73 1.42 1.419z" fill="#fff"/></symbol><symbol id="arrow-pag" viewBox="0 0 12 18"><path d="M9.95 1.55L2.37 9.13l7.58 7.578" stroke-width="3"/></symbol></svg>