<svg xmlns="http://www.w3.org/2000/svg">

    <symbol id="youtube" width="26" height="18" viewBox="0 0 26 18">
        <path d="M24.895 1.73455C24.1897 0.471273 23.4244 0.238909 21.866 0.150545C20.3092 0.0441818 16.3946 0 13.0033 0C9.60537 0 5.68913 0.0441819 4.134 0.148909C2.57887 0.238909 1.81187 0.469636 1.10012 1.73455C0.37375 2.99618 0 5.16927 0 8.99509C0 8.99836 0 9 0 9C0 9.00327 0 9.00491 0 9.00491V9.00818C0 12.8176 0.37375 15.0071 1.10012 16.2556C1.81187 17.5189 2.57725 17.748 4.13237 17.8544C5.68913 17.946 9.60537 18 13.0033 18C16.3946 18 20.3092 17.946 21.8676 17.856C23.426 17.7496 24.1914 17.5205 24.8966 16.2573C25.6295 15.0087 26 12.8193 26 9.00982C26 9.00982 26 9.00491 26 9.00164C26 9.00164 26 8.99836 26 8.99673C26 5.16927 25.6295 2.99618 24.895 1.73455ZM9.75 13.9091V4.09091L17.875 9L9.75 13.9091Z"/>
    </symbol>

    <symbol id="instagram" width="21" height="20" viewBox="0 0 21 20" >
        <path d="M0.126068 6.08672C0.193272 5.6121 0.244475 5.13478 0.329896 4.66362C0.814109 1.9949 2.70345 0.179166 5.4049 0.0861142C8.65753 -0.0256463 11.92 -0.0315543 15.1721 0.0856218C18.1124 0.191474 20.2417 2.36859 20.3335 5.30981C20.4313 8.43295 20.4313 11.5637 20.3335 14.6869C20.2417 17.6281 18.1131 19.8049 15.1724 19.911C11.9202 20.0285 8.65703 20.0314 5.40515 19.9093C2.46442 19.7988 0.431563 17.6168 0.234875 14.6711C0.217889 14.4163 0.16324 14.1637 0.126068 13.9102C0.126068 11.3023 0.126068 8.69438 0.126068 6.08672ZM10.2692 18.1679C11.7575 18.1679 13.2473 18.2125 14.7337 18.1576C17.0642 18.0712 18.4976 16.6803 18.552 14.3521C18.6195 11.451 18.6195 8.54594 18.552 5.6446C18.4976 3.31683 17.0632 1.89348 14.7337 1.844C11.777 1.78148 8.81704 1.78197 5.86031 1.844C3.54855 1.8925 2.11092 3.28704 2.04815 5.58921C1.96839 8.52698 1.96839 11.4699 2.04815 14.4077C2.11092 16.7096 3.54855 18.0719 5.86056 18.1576C7.32822 18.2122 8.79956 18.1679 10.2692 18.1679Z" fill="url(#paint0_linear)"/>
        <path d="M0 6.08672C0.067204 5.6121 0.118407 5.13478 0.203827 4.66362C0.688041 1.9949 2.57738 0.179166 5.27883 0.0861142C8.53146 -0.0256463 11.7939 -0.0315543 15.0461 0.0856218C17.9863 0.191474 20.1156 2.36859 20.2075 5.30981C20.3052 8.43295 20.3052 11.5637 20.2075 14.6869C20.1156 17.6281 17.987 19.8049 15.0463 19.911C11.7942 20.0285 8.53096 20.0314 5.27908 19.9093C2.33835 19.7988 0.305495 17.6168 0.108806 14.6711C0.0918208 14.4163 0.0371714 14.1637 0 13.9102C0 11.3023 0 8.69438 0 6.08672ZM10.1431 18.1679C11.6315 18.1679 13.1213 18.2125 14.6076 18.1576C16.9381 18.0712 18.3715 16.6803 18.4259 14.3521C18.4934 11.451 18.4934 8.54594 18.4259 5.6446C18.3715 3.31683 16.9371 1.89348 14.6076 1.844C11.6509 1.78148 8.69097 1.78197 5.73425 1.844C3.42248 1.8925 1.98486 3.28704 1.92208 5.58921C1.84232 8.52698 1.84232 11.4699 1.92208 14.4077C1.98486 16.7096 3.42248 18.0719 5.73449 18.1576C7.20215 18.2122 8.6735 18.1679 10.1431 18.1679Z" />
        <path d="M10.1396 4.83203C7.28557 4.83203 4.97159 7.14577 4.97159 9.99984C4.97159 12.8542 7.28557 15.1679 10.1396 15.1679C12.994 15.1679 15.3077 12.8542 15.3077 9.99984C15.3077 7.14577 12.994 4.83203 10.1396 4.83203ZM10.1396 13.3886C8.26803 13.3886 6.75089 11.8715 6.75089 9.99984C6.75089 8.12823 8.26803 6.61109 10.1396 6.61109C12.0113 6.61109 13.5284 8.12823 13.5284 9.99984C13.5284 11.8715 12.0113 13.3886 10.1396 13.3886Z" />
        <path d="M16.8393 4.59631C16.8393 5.27524 16.2889 5.82568 15.61 5.82568C14.931 5.82568 14.3803 5.27524 14.3803 4.59631C14.3803 3.91713 14.931 3.3667 15.61 3.3667C16.2889 3.3667 16.8393 3.91713 16.8393 4.59631Z" />
        <defs>
        <linearGradient id="paint0_linear" x1="16.6729" y1="3.63825" x2="3.62065" y2="16.6905" gradientUnits="userSpaceOnUse">
        <stop stop-color="#833AB4"/>
        <stop offset="0.0922" stop-color="#9C3495"/>
        <stop offset="0.2927" stop-color="#DC2546"/>
        <stop offset="0.392" stop-color="#FD1D1D"/>
        <stop offset="0.5589" stop-color="#FC6831"/>
        <stop offset="0.6887" stop-color="#FC9B40"/>
        <stop offset="0.7521" stop-color="#FCAF45"/>
        <stop offset="0.7806" stop-color="#FDB750"/>
        <stop offset="0.8656" stop-color="#FECB6A"/>
        <stop offset="0.9415" stop-color="#FFD87A"/>
        <stop offset="1" stop-color="#FFDC80"/>
        </linearGradient>
        </defs>
    </symbol>

    <symbol id="facebook" width="11" height="23" viewBox="0 0 11 23" >
        <path d="M9.88178 11.5613H6.99914V22.3928H2.63168V11.5613H0.554504V7.7547H2.63168V5.29139C2.63168 3.52986 3.44752 0.771484 7.03801 0.771484L10.2731 0.785366V4.48033H7.92585C7.54082 4.48033 6.99943 4.67763 6.99943 5.51793V7.75825H10.2634L9.88178 11.5613Z"/>
    </symbol>

    <symbol id="telegram" width="20" height="18" viewBox="0 0 20 18">
        <path d="M0.903392 7.16659L18.1095 0.0866511C18.9081 -0.221241 19.6055 0.294558 19.3468 1.58326L19.3483 1.58167L16.4186 16.3113C16.2015 17.3556 15.62 17.6095 14.8066 17.1175L10.3452 13.6085L8.1933 15.8209C7.95536 16.0748 7.7546 16.2891 7.29359 16.2891L7.61035 11.4438L15.8788 3.47188C16.2387 3.13383 15.7985 2.94338 15.3241 3.27984L5.10602 10.1455L0.701142 8.67907C-0.255082 8.3553 -0.275902 7.65858 0.903392 7.16659Z"/>
    </symbol>

    <symbol id="viber" width="22" height="23" viewBox="0 0 22 23">
        <path d="M21.1674 6.09734L21.161 6.07175C20.6435 3.97974 18.3106 1.7349 16.1681 1.26788L16.1439 1.2629C12.6786 0.601819 9.16486 0.601819 5.70021 1.2629L5.67533 1.26788C3.53356 1.7349 1.20058 3.97974 0.682375 6.07175L0.676688 6.09734C0.0369293 9.01891 0.0369293 11.9817 0.676688 14.9033L0.682375 14.9289C1.17847 16.9316 3.33773 19.0733 5.40024 19.6623V21.9975C5.40024 22.8427 6.43025 23.2579 7.01598 22.648L9.38202 20.1885C9.89518 20.2172 10.4086 20.2332 10.9221 20.2332C12.6665 20.2332 14.4116 20.0683 16.1439 19.7378L16.1681 19.7328C18.3106 19.2658 20.6435 17.0209 21.161 14.9289L21.1674 14.9033C21.8072 11.9817 21.8072 9.01891 21.1674 6.09734ZM19.2951 14.4796C18.9496 15.8444 17.1782 17.5412 15.7707 17.8547C13.9281 18.2051 12.071 18.3548 10.2157 18.3034C10.1788 18.3024 10.1433 18.3167 10.1176 18.3432C9.85431 18.6134 8.39004 20.1166 8.39004 20.1166L6.55251 22.0024C6.41816 22.1425 6.18216 22.0472 6.18216 21.8539V17.9853C6.18216 17.9214 6.13653 17.8671 6.07376 17.8548C6.0734 17.8548 6.07305 17.8547 6.07269 17.8546C4.66523 17.5411 2.89452 15.8443 2.54834 14.4795C1.97255 11.8387 1.97255 9.16172 2.54834 6.52093C2.89452 5.15612 4.66523 3.45934 6.07269 3.14585C9.29068 2.53382 12.5534 2.53382 15.7707 3.14585C17.1789 3.45934 18.9496 5.15612 19.2951 6.52093C19.8715 9.16179 19.8715 11.8388 19.2951 14.4796Z" />
        <path d="M13.983 16.2654C13.7666 16.1998 13.5604 16.1556 13.3689 16.0762C11.3845 15.2529 9.55823 14.1907 8.11159 12.5625C7.28893 11.6367 6.64505 10.5914 6.10076 9.48515C5.84265 8.96055 5.62514 8.4154 5.40342 7.87381C5.20126 7.37992 5.49903 6.86968 5.81259 6.49755C6.1068 6.14831 6.4854 5.88104 6.89541 5.68406C7.21543 5.53031 7.53112 5.61895 7.76484 5.89021C8.27011 6.47665 8.73422 7.09309 9.11004 7.77287C9.34114 8.19099 9.27773 8.70209 8.8589 8.98664C8.75711 9.0558 8.66434 9.13698 8.56952 9.2151C8.48635 9.28355 8.40808 9.35272 8.35107 9.44541C8.24687 9.61502 8.24189 9.81505 8.30899 9.99944C8.82549 11.4189 9.69606 12.5226 11.1247 13.1171C11.3533 13.2122 11.5829 13.3229 11.8463 13.2922C12.2874 13.2407 12.4302 12.7569 12.7392 12.5041C13.0414 12.2571 13.4274 12.2538 13.7528 12.4597C14.0783 12.6657 14.3939 12.8869 14.7075 13.1104C15.0154 13.3297 15.3219 13.5443 15.6059 13.7944C15.8789 14.0349 15.9729 14.3504 15.8192 14.6767C15.5377 15.2744 15.1281 15.7716 14.5373 16.089C14.3704 16.1785 14.1712 16.2075 13.983 16.2654C13.7666 16.1997 14.1712 16.2075 13.983 16.2654Z" />
        <path d="M10.9262 5.00108C13.5219 5.0738 15.6537 6.79638 16.1106 9.36252C16.1884 9.79976 16.2162 10.2468 16.2508 10.6906C16.2654 10.8773 16.1597 11.0546 15.9582 11.057C15.7501 11.0595 15.6565 10.8854 15.643 10.6988C15.6163 10.3295 15.5977 9.9585 15.5468 9.5922C15.2781 7.65864 13.7363 6.05896 11.8117 5.71569C11.5221 5.66401 11.2257 5.65043 10.9323 5.61966C10.7469 5.60018 10.504 5.58895 10.4629 5.35842C10.4284 5.16514 10.5916 5.01125 10.7756 5.00136C10.8256 4.99859 10.876 5.00087 10.9262 5.00108C13.5219 5.0738 10.876 5.00087 10.9262 5.00108Z" />
        <path d="M14.8736 10.1131C14.8693 10.1455 14.867 10.2217 14.848 10.2935C14.7792 10.5541 14.3841 10.5867 14.2931 10.3237C14.2661 10.2457 14.2621 10.1569 14.262 10.0729C14.261 9.52309 14.1415 8.97389 13.8643 8.49556C13.5793 8.00395 13.1439 7.59066 12.6333 7.34059C12.3245 7.18939 11.9905 7.09542 11.6521 7.0394C11.5042 7.01495 11.3547 7.00009 11.206 6.97941C11.0259 6.95439 10.9297 6.83959 10.9383 6.66209C10.9462 6.49575 11.0678 6.37612 11.249 6.38635C11.8447 6.42019 12.4201 6.54892 12.9497 6.82935C14.0266 7.39966 14.6418 8.29987 14.8213 9.50191C14.8294 9.55636 14.8425 9.61031 14.8466 9.66497C14.8568 9.79996 14.8632 9.93509 14.8736 10.1131C14.8693 10.1455 14.8632 9.93509 14.8736 10.1131Z" />
        <path d="M13.2583 10.0493C13.0412 10.0532 12.925 9.933 12.9026 9.73398C12.8871 9.5952 12.8748 9.45458 12.8417 9.31958C12.7765 9.05369 12.6351 8.80727 12.4114 8.64433C12.3058 8.56738 12.1862 8.51132 12.0608 8.47515C11.9016 8.42918 11.7363 8.44182 11.5774 8.40288C11.4049 8.36061 11.3094 8.22091 11.3366 8.05905C11.3612 7.91175 11.5045 7.79678 11.6655 7.80843C12.6714 7.88105 13.3904 8.40111 13.493 9.58533C13.5002 9.66889 13.5088 9.75721 13.4902 9.83715C13.4584 9.974 13.3571 10.0426 13.2583 10.0493C13.0412 10.0532 13.3571 10.0426 13.2583 10.0493Z" />
    </symbol>

    <symbol id="search" width="18" height="18" viewBox="0 0 18 18">
        <path d="M13.0914 11.5488C13.9536 10.3715 14.4693 8.92535 14.4693 7.35765C14.4693 3.43324 11.2763 0.240234 7.35185 0.240234C3.42744 0.240234 0.234467 3.43324 0.234467 7.35765C0.234467 11.2821 3.42747 14.4751 7.35188 14.4751C8.91958 14.4751 10.3658 13.9593 11.5431 13.0972L16.2059 17.76L17.7543 16.2116C17.7543 16.2116 13.0914 11.5488 13.0914 11.5488ZM7.35188 12.2851C4.63473 12.2851 2.42445 10.0748 2.42445 7.35765C2.42445 4.64049 4.63473 2.43022 7.35188 2.43022C10.069 2.43022 12.2793 4.64049 12.2793 7.35765C12.2793 10.0748 10.069 12.2851 7.35188 12.2851Z"/>
    </symbol>

    <symbol id="phone" width="13" height="13" viewBox="0 0 13 13">
        <path fill-rule="evenodd" clip-rule="evenodd" d="M12.0257 9.54478V11.3503C12.0271 11.6892 11.8853 12.013 11.635 12.2421C11.3848 12.4712 11.0494 12.5844 10.7111 12.5539C8.85553 12.3527 7.07309 11.7199 5.50704 10.7063C4.05003 9.7823 2.81474 8.54946 1.8889 7.09534C0.869774 5.52529 0.235552 3.73773 0.0376137 1.87748C0.00714482 1.54098 0.119789 1.20719 0.34803 0.957654C0.576271 0.708116 0.89909 0.565807 1.23763 0.565489H3.0467C3.65206 0.559543 4.16803 1.0024 4.25275 1.60064C4.32911 2.17843 4.47071 2.74575 4.67487 3.29178C4.84054 3.73164 4.73458 4.2275 4.40351 4.56164L3.63767 5.32596C4.49611 6.83267 5.74611 8.0802 7.25581 8.93694L8.02165 8.17261C8.35645 7.8422 8.8533 7.73645 9.29403 7.90179C9.84114 8.10554 10.4096 8.24687 10.9885 8.32307C11.5949 8.40845 12.0409 8.9338 12.0257 9.54478Z"/>
    </symbol>

    <symbol id="tire" width="28" height="28" viewBox="0 0 28 28" >
        <g clip-path="url(#clip0)">
        <path d="M28.0003 14.0259C28.0004 14.0173 28.0006 14.0086 28.0006 13.9999C28.0006 10.2604 26.5444 6.74473 23.9002 4.1005C21.256 1.45626 17.7403 0 14.0008 0C10.2613 0 6.74559 1.45626 4.10135 4.1005C1.46357 6.73828 0.00829195 10.2433 0.00118262 13.9725V13.9743C0.00112793 13.9828 0.000854492 13.9913 0.000854492 13.9999C0.000854492 17.7394 1.45706 21.2551 4.1013 23.8993C6.74373 26.5418 10.2565 27.9978 13.9931 27.9997C13.9958 27.9998 13.9985 28 14.0012 28C14.0026 28 14.0041 27.9998 14.0055 27.9998C17.7432 27.9986 21.2571 26.5425 23.9002 23.8993C26.5378 21.2617 27.9931 17.7568 28.0003 14.0278C28.0003 14.0272 28.0003 14.0265 28.0003 14.0259ZM20.6063 24.4414L19.4029 23.6468C19.0248 23.3972 18.516 23.5013 18.2664 23.8793C18.0167 24.2574 18.1208 24.7662 18.4989 25.0159L18.9591 25.3198C17.5852 25.924 16.0814 26.2849 14.502 26.3483L13.8556 25.0554C13.653 24.6502 13.1602 24.486 12.755 24.6886C12.3498 24.8912 12.1855 25.3839 12.3882 25.7892L12.6353 26.2835C11.0714 26.1108 9.59468 25.6453 8.26097 24.9429L8.34754 23.5019C8.37472 23.0497 8.03014 22.6611 7.57787 22.6339C7.12687 22.6074 6.737 22.9513 6.70982 23.4035L6.67701 23.9492C5.44283 23.0383 4.38349 21.9039 3.55935 20.6058L4.35385 19.4024C4.60344 19.0242 4.49931 18.5154 4.12121 18.2658C3.7431 18.0163 3.23429 18.1204 2.9847 18.4985L2.68091 18.9586C2.07673 17.5847 1.71574 16.0809 1.65235 14.5016L2.9451 13.855C3.35028 13.6523 3.51445 13.1596 3.31184 12.7544C3.10916 12.3492 2.61649 12.1851 2.21126 12.3877L1.71716 12.6348C1.8898 11.0708 2.35541 9.59405 3.05781 8.26033L4.49871 8.3469C4.51545 8.34789 4.53213 8.34838 4.5487 8.34838C4.97919 8.34838 5.34057 8.01271 5.36676 7.57724C5.39389 7.12497 5.04936 6.73637 4.59715 6.70919L4.05142 6.67637C4.96235 5.44214 6.09689 4.38274 7.39505 3.55855L8.59866 4.3531C8.73784 4.44497 8.89469 4.48889 9.04983 4.48889C9.31616 4.48889 9.57746 4.35933 9.73517 4.12041C9.98477 3.7423 9.88059 3.23349 9.50248 2.9839L9.04234 2.68016C10.4162 2.07598 11.9199 1.71504 13.4991 1.65166L14.1458 2.94452C14.2896 3.2319 14.5792 3.39804 14.8801 3.39804C15.0034 3.39804 15.1286 3.37015 15.2464 3.3112C15.6516 3.10853 15.8158 2.6158 15.6131 2.21062L15.3659 1.71641C16.93 1.88906 18.4068 2.35467 19.7406 3.05718L19.6542 4.49813C19.627 4.95039 19.9717 5.33895 20.4239 5.36607C20.4407 5.36711 20.4573 5.36755 20.4738 5.36755C20.9044 5.36755 21.2658 5.03182 21.2919 4.59629L21.3246 4.0509C22.5588 4.96182 23.6181 6.09636 24.4423 7.39453L23.6476 8.59786C23.398 8.97592 23.5021 9.48478 23.8801 9.73443C24.0193 9.82636 24.1762 9.87027 24.3314 9.87027C24.5977 9.87027 24.8589 9.74077 25.0167 9.5019L25.3206 9.04171C25.9247 10.4156 26.2856 11.9194 26.349 13.4987L25.0562 14.1451C24.651 14.3477 24.4868 14.8404 24.6894 15.2456C24.8331 15.5331 25.1228 15.6993 25.4237 15.6993C25.547 15.6993 25.6722 15.6714 25.7899 15.6125L26.2842 15.3653C26.1115 16.9293 25.646 18.4061 24.9435 19.7398L23.5024 19.6534C23.0501 19.6266 22.6616 19.9709 22.6345 20.4231C22.6073 20.8754 22.952 21.2639 23.4042 21.291L23.9498 21.3237C23.039 22.5579 21.9044 23.6172 20.6063 24.4414Z" fill="white"/>
        <path d="M14 5.27197C9.18736 5.27197 5.27197 9.18741 5.27197 14.0001C5.27197 18.8127 9.18736 22.7282 14 22.7282C18.8126 22.7282 22.728 18.8128 22.728 14.0001C22.728 9.18741 18.8126 5.27197 14 5.27197ZM14 15.8157C12.9988 15.8157 12.1844 15.0012 12.1844 14.0001C12.1844 12.9989 12.9989 12.1845 14 12.1845C15.0012 12.1845 15.8156 12.999 15.8156 14.0001C15.8156 15.0012 15.0012 15.8157 14 15.8157ZM6.91259 14.0001C6.91259 13.0026 7.12013 12.0527 7.49369 11.1909L10.6827 13.032C10.5928 13.3394 10.5437 13.664 10.5437 14.0001C10.5437 14.3362 10.5928 14.6607 10.6827 14.9681L7.49364 16.8092C7.12018 15.9474 6.91259 14.9976 6.91259 14.0001ZM17.3173 13.032L20.5063 11.1909C20.8798 12.0527 21.0874 13.0026 21.0874 14.0001C21.0874 14.9976 20.8799 15.9474 20.5063 16.8092L17.3173 14.9681C17.4071 14.6607 17.4562 14.3362 17.4562 14.0001C17.4562 13.664 17.4071 13.3394 17.3173 13.032ZM19.6841 9.7712L16.4952 11.6122C16.0472 11.1443 15.4696 10.8017 14.8204 10.643V6.96033C16.8065 7.19034 18.5452 8.24438 19.6841 9.7712ZM13.1797 6.96033V10.643C12.5304 10.8017 11.9528 11.1442 11.5048 11.6122L8.31592 9.7712C9.45478 8.24438 11.1934 7.19034 13.1797 6.96033ZM8.31592 18.2289L11.5048 16.3879C11.9528 16.8559 12.5304 17.1984 13.1797 17.3571V21.0398C11.1934 20.8098 9.45478 19.7558 8.31592 18.2289ZM14.8203 21.0398V17.3571C15.4695 17.1984 16.0472 16.8559 16.4951 16.3879L19.6841 18.2289C18.5452 19.7558 16.8065 20.8098 14.8203 21.0398Z" fill="white"/>
        </g>
        <defs>
        <clipPath id="clip0">
        <rect width="28" height="28" fill="white"/>
        </clipPath>
        </defs>

    </symbol>

    <symbol id="arrow-triangle" width="10" height="12" viewBox="0 0 10 12" >
        <path d="M2.17833 11.1665L8.73878 6.78617C9.33173 6.39026 9.33173 5.51875 8.73878 5.12285L2.17833 0.742541C1.51382 0.298859 0.623047 0.775184 0.623047 1.5742V10.3348C0.623047 11.1338 1.51382 11.6102 2.17833 11.1665Z" fill="white"/>
    </symbol>

    <symbol id="steering-wheel" width="35" height="36" viewBox="0 0 35 36" >
        <g clip-path="url(#clip0)">
        <path d="M17.3311 19.9917C17.8812 19.9917 18.3271 19.5326 18.3271 18.9663C18.3271 18.4 17.8812 17.9409 17.3311 17.9409C16.7809 17.9409 16.335 18.4 16.335 18.9663C16.335 19.5326 16.7809 19.9917 17.3311 19.9917Z"/>
        <path d="M17.3311 0.440918C7.97056 0.440918 0.331055 8.3056 0.331055 17.9409C0.331055 27.5769 7.97103 35.4409 17.3311 35.4409C26.6917 35.4409 34.3311 27.5762 34.3311 17.9409C34.3311 8.30512 26.6911 0.440918 17.3311 0.440918ZM17.3311 4.61084C23.7939 4.61084 29.1659 9.51002 30.127 15.8901H26.6726C24.4824 15.8901 22.4015 14.9854 20.9635 13.4079C18.9979 11.2515 15.6645 11.2508 13.6986 13.4079C12.2606 14.9854 10.1797 15.8901 7.98942 15.8901H4.5351C5.4962 9.51002 10.8682 4.61084 17.3311 4.61084ZM17.3311 22.0425C15.6834 22.0425 14.3428 20.6626 14.3428 18.9663C14.3428 17.27 15.6834 15.8901 17.3311 15.8901C18.9789 15.8901 20.3193 17.27 20.3193 18.9663C20.3193 20.6626 18.9789 22.0425 17.3311 22.0425ZM5.27301 22.8011C6.4132 22.3406 7.23651 22.0425 8.36621 22.0425C11.9978 22.0425 14.8222 25.3739 14.2751 29.117H14.2728C14.1915 29.6899 14.0316 30.2451 13.801 30.7675C9.899 29.628 6.74132 26.6481 5.27301 22.8011ZM20.8619 30.7673C20.625 30.231 20.4685 29.6759 20.3893 29.117H20.387C19.7496 24.7553 23.6609 21.1564 27.7152 22.2171C28.1426 22.3289 28.6774 22.5138 29.389 22.8011C27.9209 26.6478 24.7635 29.6276 20.8619 30.7673Z"/>
        </g>
    </symbol>

    <symbol id="check" width="35" height="35" viewBox="0 0 35 35">
        <g>
        <path d="M35 17.4409L31.0378 13.1675L31.6582 7.44663L25.8645 6.25511L22.9091 1.26782L17.5 3.61616L12.0909 1.26782L9.13556 6.25511L3.34186 7.44663L3.96216 13.1675L0 17.4409L3.96209 21.7142L3.34179 27.4351L9.13549 28.6267L12.0909 33.614L17.5 31.2656L22.9091 33.614L25.8644 28.6267L31.6581 27.4351L31.0378 21.7142L35 17.4409ZM24.8364 13.7186L16.0521 23.2789L9.94797 17.3492L11.3999 15.9388L15.9673 20.3758L23.3046 12.3904L24.8364 13.7186Z"/>
        </g>
    </symbol>

    <symbol id="checked" width="32" height="33" viewBox="0 0 32 33">
        <g >
        <path d="M16.0001 0.440918L4.00009 5.01236V16.4409C4.00009 25.5837 8.80013 29.0124 16.0001 32.4409C23.2 29.0124 28 25.5837 28 16.4409V5.01236L16.0001 0.440918ZM14.0001 22.4409L8.00012 16.4409L11.0001 13.4409L14.086 16.5269L20.5861 10.0268L23.5002 12.9409L14.0001 22.4409Z"/>
        </g>

    </symbol>


</svg>
